<?xml version="1.0" encoding="UTF-8"?>
<svg id="_Слой_1" data-name="Слой 1" xmlns="http://www.w3.org/2000/svg" viewBox="0 0 1000 627.66">
  <defs>
    <style>
      .cls-1 {
        fill: #0ba4de;
      }
    </style>
  </defs>
  <path class="cls-1" d="M411.45,383.29c-6.42,9.39-11.95,11.06-16.58,4.99-3.69-4.63-5.53-9.92-5.53-15.86,0-4.28,.89-17.65,2.68-40.12l-11.77-3.39c-1.9,27.1-6.01,44.75-12.3,52.96-4.64,6.06-9.28,9.33-13.91,9.8-6.18,.72-8.68-5.7-7.49-19.25,2.61-25.56,10.52-41.13,23.71-46.72,3.81-1.66,8.21-2.43,13.2-2.31,3.92,0,5.88-.18,5.88-.54-6.89-12.6-15.69-17.47-26.39-14.62-9.51,2.62-18,10.16-25.49,22.64-7.61,12.6-11.06,25.21-10.34,37.8,.83,14.51,7.31,25.08,19.43,31.74,7.49,4.04,15.33,.59,23.54-10.34,4.15-5.47,7.54-11.35,10.16-17.65-.83,4.99-.78,9.92,.18,14.79,1.9,9.75,7.42,14.09,16.58,13.02,7.37-.83,12.42-6.3,15.15-16.4l-.71-.54Z"/>
  <path class="cls-1" d="M486.17,399.03c-.32-.04-1.28,.57-1.93,.88,1.91-.58,3.69-1.53,5.35-2.85-1.11,.75-2.25,1.4-3.42,1.97Z"/>
  <path class="cls-1" d="M483.67,400.07c.1,.03,.3-.04,.55-.15-.18,.05-.37,.1-.55,.15Z"/>
  <path class="cls-1" d="M725.95,363.57c-7.53,14.11-22.73,25.95-37.1,25.95-8.47,0-13.29-8.31-15.16-19.1,21.89-6.27,40.12-17.17,40.12-34.53,.62-15.13-8.17-24.51-23.37-24.51-20.04,0-36.54,19.29-36.54,54.24,0,.92,.03,1.84,.08,2.73-2.78,.36-5.64,.63-8.56,.84,1.77-5.85,2.74-12.39,2.74-19.58,0-25.49-16.04-35.75-30.88-35.75-13.75,0-28.18,19.41-29.33,30.85,.35-9.69,.71-19.39,1.15-28.9,.03-.71,.07-1.42,.1-2.13,.04-.05,.08-.09,.12-.14,33.32-40.23,59.4-113.92,29.48-113.92-21.17,3.47-38.63,22.68-45.38,87.25-1.39,15.01-2.11,28.28-2.25,39.96-4.45,4.88-10.69,9.97-19.1,13.27-1.79,.7-3.56,1.47-5.29,2.3-.04-.05-.08-.1-.12-.15l-3.22-4.03c-4.5-5.9-6.76-11.37-6.76-16.41,0-1.18,.97-3.87,2.9-8.04,1.6-3.43,1.98-5.26,1.13-5.47-5.91-1.93-11.16-1.46-15.77,1.44-2.26,1.4-3.97,3.01-5.15,4.83-1.61,19.41-5.74,35.72-12.39,48.91-4.13,8.35-9.92,16.56-17.35,24.61l-.06,.06c-1.53,1.56-4.46,1.42-6.51,1.03-6.66-2.14-9.51-13.55-8.56-34.24,.83-18.78,2.79-30.36,5.88-34.76,1.07-3.93-.41-6.9-4.45-8.92-2.03-.95-4.17-1.54-6.42-1.78-8.68,5.59-18.78,24.01-30.31,55.27,1.54-7.37,2.08-15.03,1.6-23-.71-11.05-3.51-19.02-8.38-23.89-5.59-3.45-10.94-3.15-16.04,.89-2.62,2.14-4.64,4.58-6.07,7.31l1.25,1.25c4.52-3.09,7.79-4.58,9.81-4.46,2.85,.36,4.28,3.51,4.28,9.45,0,8.2-3.03,31.5-9.1,69.89,5.59,1.07,10.88,2.56,15.87,4.46,2.38-3.92,6.12-13.79,11.23-29.6,4.88-15.09,9.1-25.25,12.66-30.49-.95,8.09-.59,17.3,1.07,27.64,2.38,14.98,7.19,23.36,14.44,25.14,4.2,1.4,8.01,1.64,11.43,.73,.18-.05,.37-.1,.55-.15,.01-.01,.02-.01,.02-.01,.65-.31,1.61-.92,1.93-.88,1.17-.57,2.31-1.22,3.42-1.97,.02-.01,.03-.02,.05-.04,8.5-5.64,15.59-16.27,23.07-33.7,6.44-15.02,9.97-26.28,10.61-33.79,0,6.01,2.15,12.61,6.45,19.79l.85,1.35,.71,1.14c-10.44,7.91-18.18,17.4-20.91,25.52-1.06,3.56-1.35,7.46-.6,10.45,1.28,5.58,4.66,9.65,10.13,12.22,4.83,2.37,10.57,3.28,17.22,2.74,6.32-.43,11.96-1.99,16.89-4.67,5.15-2.89,8.21-6.32,9.17-10.29,2.26-9.12,1.35-17.86-2.73-26.23-1.47-2.92-4.71-7.63-9.76-14.14-.24-.31-.48-.62-.73-.94,4.67-2.76,9.06-5.07,12.44-6.88,3.2-1.71,6.12-3.99,8.71-6.45,.35,53.65,13.71,71.04,28.29,71.04,17.15,0,33.09-8.72,41.81-24.91,.52-.97,1.02-1.97,1.48-3,3.97-.42,8.03-.98,12.1-1.66,3.73,16.83,17.92,25.95,33.1,25.95,16.95,0,36.52-19.65,40.78-35.89,.45-1.71-1.93-2.67-2.77-1.1Zm-136.83-57.75c2.68-45.23,9.35-87.35,29.99-93.78,15.21,0-1.09,54.62-29.31,93.11-.23,.32-.47,.63-.7,.95,.01-.09,.01-.19,.02-.28Zm-48.89,83.89c-4.08,4.4-8.96,5.47-14.65,3.22-4.66-1.83-6.12-7.51-5.85-12.49,.83-8.99,7.11-16.83,14.92-23.36,0,.01,.01,.01,.01,.02,.9,1.53,2.76,4.35,5.57,8.48,2.57,3.86,4.07,7.12,4.5,9.81,.86,5.47-.65,10.25-4.5,14.32Zm65.79,3.36c-19.28,4.16-21.33-32.66-9.98-49.5,14.98-25.74,30.81-15,30.81,1.78,0,20.56-5.34,43.12-20.83,47.72Zm83.44-71.44c8.47,0,13.53,8.64,9.6,20.61-5.45,11.03-14.61,17.79-26.11,21.83-1.29-19.27,5.28-42.44,16.51-42.44Z"/>
  <path class="cls-1" d="M589.32,313.54c-.05,.72-.08,1.44-.12,2.16-.03,.04-.07,.07-.1,.11,.03-.71,.07-1.42,.1-2.13,.04-.05,.08-.09,.12-.14Z"/>
  <path class="cls-1" d="M589.81,304.96c0,.06-.01,.13-.01,.19-.23,.32-.47,.63-.7,.95,.01-.09,.01-.19,.02-.28,.23-.29,.46-.57,.69-.86Z"/>
  <path class="cls-1" d="M414.47,236.97c-4.28,4.7-9.35,8.48-15.2,11.35,.28-1.58,2.5-13.21,.72-16.66-2.39-4.59-5.24-10.24-15.37-12.24-18.45-4.32-45.99,1.52-79.14,6.38-2.32,.34-5.85,.97-9.25,1.58-.72,1.11-1.56,2.54-2.37,4.16-7.02,14.17-9.59,34.32-9.58,59.62v.12c.46-.03,.98-.06,1.55-.09,9.45-.64,24.53,.16,62.24-4.43-8.1,14.93-21.45,18.27-38.94,18.43-6.79,.06-17.18-.25-24.91,.44-1.45,27.35-1.07,97.21-2.93,121.56-.65,2.02-3.73,3.97-9.59,1.41-5.15-1.85-10.31-7.92-15.45-18.23-3.12-7.94,9.55-27.92,9.48-94.87l-.08-8.06c-5.32,.22-11.62-.11-15.7-1.02-11.08-2.46-13.81-12.8-14.48-17.32,12.31,2.55,17.93,4.14,30.77,3.08,.71-9.85,0-34.59,5.02-60.76-21.13,3.15-42.25,2.04-47.87-3.58-2.81-3.57-6.77-11.23-1.91-20.42,8.42,10.72,21.06,11.2,29.36,10.46,18.4-1.72,31.55-3.12,49.02-7.4,65.28-16,104.69-16.77,115.25-2.63,8.13,9.85,7.93,19.55-.64,29.12Z"/>
  <g>
    <g>
      <path class="cls-1" d="M744.29,277.02c-5.01,5.08-13.54,14.12-14.28,16.61-.96-.66-1.89-1.35-2.78-2.06l16.76-14.68m-2.38-3.53c-.67,.67-1.13,1.14-1.34,1.35,.44-.53,.88-1.06,1.33-1.59m39.22-4.31c0-8.37-4.57-15.71-11.91-19.14-7.39-3.45-16.06-2.16-23.5,3.43-7.43-5.59-16.11-6.89-23.5-3.43-7.34,3.43-11.91,10.77-11.91,19.14,0,14.64,13.63,29.07,34.72,36.77,6.65,2.42,13.76,4.08,21.14,4.93,.08,0,.15,0,.23,0,.61,0,1.19-.28,1.57-.77,.43-.54,.53-1.28,.29-1.93l-4.32-11.32c10.94-7.82,17.19-17.84,17.19-27.69Zm-4.5-4.31c.34,1.38,.51,2.83,.51,4.31,0,.56-.02,1.12-.07,1.68-3.15-1-16.73,12.8-18.34,14.44l17.9-20.43Zm-21.17,8.58c0-2.35,1.9-4.24,4.25-4.24s4.24,1.89,4.24,4.24-1.9,4.24-4.24,4.24-4.25-1.9-4.25-4.24Zm19.52-12.83l-10.92,9.49,9.53-11.62c.51,.67,.98,1.38,1.39,2.13Zm-4.6-5.27l-16.38,16.42,14.15-17.81c.79,.4,1.53,.87,2.23,1.39Zm-24.93,13.93c.23-.05,.47-.07,.71-.07,.09,0,.18,0,.27,.01,2.22,.14,3.97,1.97,3.97,4.23s-1.9,4.24-4.24,4.24c-.55,0-1.08-.1-1.56-.3-.1-.03-.2-.08-.3-.13-1.34-.65-2.28-1.97-2.38-3.53-.01-.08-.01-.16-.01-.24v-.04c0-2.11,1.53-3.85,3.54-4.17Zm-5.21-14.63c.7,.38,1.4,.81,2.08,1.28l-7.11,4.66,5.03-5.94Zm-8.47-2.54c.92,.05,1.83,.17,2.75,.36l-5.68,4.68c1.71-2.02,3.03-3.86,2.93-5.04Zm.83,17.1c2.35,0,4.25,1.89,4.25,4.24s-1.9,4.24-4.25,4.24-4.24-1.9-4.24-4.24,1.9-4.24,4.24-4.24Zm-8.69-15.57c1.14-.53,2.32-.92,3.52-1.18l-12.62,12.4c1.21-4.94,4.47-9.05,9.1-11.22Zm-9.09,20.12c-.18-.76-.31-1.53-.39-2.29l7.47-4.24c-3.1,2.31-5.59,4.51-7.08,6.53Zm7.23,13.08l6.22-3.77-4.25,5.8c-.69-.66-1.35-1.35-1.97-2.03Zm12.53,9.88c-.47-.28-.94-.55-1.4-.84l5.94-4.58-4.54,5.42Zm6.68,3.4c-.45-.2-.91-.41-1.35-.62l5.92-4.88-4.57,5.5Zm5.14,2.08c-.08-.02-.17-.06-.24-.09l9.85-8.9c-3.35,3.49-6.8,7.06-8.45,9.41-.39-.14-.78-.28-1.16-.42Zm8.72,.16c1.52-1.87,3.04-3.73,4.54-5.56,0,.01,0,.02,.01,.04l.26,.69-4.81,4.83Zm8.05-9.87c5.46-6.72,10.16-12.56,12.56-15.79-1.04,2.8-2.64,5.56-4.75,8.21-2.11,2.66-4.73,5.21-7.81,7.58Zm-21.26-19c-.45,.53-.89,1.06-1.33,1.59,.21-.21,.67-.68,1.34-1.35-.01-.08-.01-.16-.01-.24Zm2.39,3.77l-16.76,14.68c.89,.71,1.82,1.4,2.78,2.06,.74-2.49,9.27-11.53,14.28-16.61-.1-.03-.2-.08-.3-.13Zm14.12-25.04c-1.03,2.62-6.64,9.5-12.97,17.06,.23-.05,.47-.07,.71-.07,.09,0,.18,0,.27,.01,5.76-5.7,14.18-13.83,18.14-16.63-2.01-.51-4.07-.63-6.15-.37Z"/>
      <path class="cls-1" d="M745.85,301.74c.07,.03,.16,.07,.24,.09,.38,.14,.77,.28,1.16,.42,1.65-2.35,5.1-5.92,8.45-9.41l-9.85,8.9Zm0,0c.07,.03,.16,.07,.24,.09,.38,.14,.77,.28,1.16,.42,1.65-2.35,5.1-5.92,8.45-9.41l-9.85,8.9Zm0,0c.07,.03,.16,.07,.24,.09,.38,.14,.77,.28,1.16,.42,1.65-2.35,5.1-5.92,8.45-9.41l-9.85,8.9Z"/>
      <path class="cls-1" d="M714.12,271.1c.08,.76,.21,1.53,.39,2.29,1.49-2.02,3.98-4.22,7.08-6.53l-7.47,4.24Z"/>
    </g>
    <path class="cls-1" d="M725.84,273.49h0"/>
    <path class="cls-1" d="M740.15,274.84l.02-.02"/>
    <path class="cls-1" d="M758.27,285.1s.01-.02,.04-.04"/>
  </g>
</svg>